<?xml version="1.0" encoding="UTF-8"?>
<!DOCTYPE svg PUBLIC "-//W3C//DTD SVG 1.1//EN" "http://www.w3.org/Graphics/SVG/1.1/DTD/svg11.dtd">
<!-- Creator: CorelDRAW -->
<svg xmlns="http://www.w3.org/2000/svg" xml:space="preserve" width="7.83333in" height="7.83333in" style="shape-rendering:geometricPrecision; text-rendering:geometricPrecision; image-rendering:optimizeQuality; fill-rule:evenodd; clip-rule:evenodd"
viewBox="0 0 7.83333 7.83333"
 xmlns:xlink="http://www.w3.org/1999/xlink">
 <defs>
  <style type="text/css">
   <![CDATA[
    .fil0 {fill:#7BCB9E}
    .fil4 {fill:#87B2B6}
    .fil5 {fill:#9599B0}
    .fil1 {fill:#B2EBF2}
    .fil3 {fill:#C5CAE9}
    .fil2 {fill:#413B32;fill-rule:nonzero}
   ]]>
  </style>
 </defs>
 <g id="Layer_x0020_1">
  <metadata id="CorelCorpID_0Corel-Layer"/>
  <circle class="fil0" cx="3.91667" cy="3.91667" r="3.91667"/>
  <g id="_203007160">
   <g>
    <path id="_203008792" class="fil1" d="M3.2254 2.69665c-0.000393701,-0.000393701 -0.000787402,-0.000779528 -0.00118898,-0.00116142 -0.0313189,-0.0300709 -0.0810945,-0.0296811 -0.111937,0.00116142l-0.0502323 0.0502323 -0.440051 0.440051c0.0312362,-0.0312362 0.0818898,-0.0312362 0.113126,0l0.056563 0.056563 0.383587 -0.383587 0.0501339 -0.0501339c0.0300591,-0.0300591 0.0311929,-0.0780984 0.00339764,-0.109512 -0.000956693,-0.00108268 -0.00194488,-0.00214173 -0.00295669,-0.00319685 -0.000145669,-0.000141732 -0.000291339,-0.000279528 -0.000440945,-0.000417323zm-0.0501339 0.16326c0.140571,0.0888701 0.328984,0.0718307 0.450945,-0.0501339 0.141929,-0.141933 0.141929,-0.372008 0,-0.513937 -0.141929,-0.141929 -0.372004,-0.141933 -0.513937,0 -0.122441,0.122441 -0.139417,0.310063 -0.0502323,0.451043l-0.440051 0.440051c-0.0312362,0.0312362 -0.0312362,0.0818898 0,0.113126l0.056563 0.056563 0.167146 0.167146c0.0312362,0.0312362 0.0818898,0.0312362 0.113126,0 0.0312362,-0.0312362 0.0312362,-0.0818898 0,-0.113126l-0.167146 -0.167146 0.383587 -0.383587z"/>
    <g>
     <path id="_203008888" class="fil2" d="M1.8364 1.83641c0.319819,-0.319819 0.738992,-0.479732 1.15816,-0.479732 0.419161,0 0.838339,0.159913 1.15816,0.479732 0.319819,0.319819 0.479732,0.738992 0.479732,1.15816 0,0.419161 -0.159913,0.838339 -0.479732,1.15816 -0.319819,0.319819 -0.738996,0.479732 -1.15816,0.479732 -0.419165,0 -0.838339,-0.159913 -1.15816,-0.479732 -0.319819,-0.319819 -0.479732,-0.738996 -0.479732,-1.15816 0,-0.419165 0.159913,-0.838339 0.479732,-1.15816zm1.15816 -0.319732c-0.378232,0 -0.756461,0.144287 -1.04503,0.432858 -0.288571,0.288571 -0.432858,0.666799 -0.432858,1.04503 0,0.378228 0.144287,0.756461 0.432858,1.04503 0.288571,0.288571 0.666799,0.432858 1.04503,0.432858 0.378228,0 0.756461,-0.144287 1.04503,-0.432858 0.288571,-0.288571 0.432858,-0.666803 0.432858,-1.04503 0,-0.378232 -0.144287,-0.756461 -0.432858,-1.04503 -0.288571,-0.288571 -0.666803,-0.432858 -1.04503,-0.432858z"/>
     <path id="_203008816" class="fil2" d="M4.27533 4.83979l0.56474 -0.56474 -3.93701e-006 -3.93701e-006c0.0312402,-0.0312402 0.0818937,-0.0312402 0.113134,0l0.000287402 0.000295276 1.48888 1.48888 7.87402e-006 7.87402e-006 3.93701e-006 -3.93701e-006c0.00245669,0.00245669 0.00472047,0.00503937 0.00679134,0.00771654 0.0183189,0.0217205 0.0274843,0.0484843 0.0274843,0.0751417 0,0.0297795 -0.0114331,0.059685 -0.0342795,0.0825433l-0.0326614 -0.0324803 -9.05512e-005 2.75591e-005 0.0327717 0.032752 -0.000326772 0.000318898 -0.51213 0.512134c-0.0228504,0.0228504 -0.0528937,0.0342874 -0.0828622,0.0342874 -0.0297795,0 -0.059689,-0.0114331 -0.0825551,-0.0342874l0.056252 -0.056563 -0.0565512 0.0565827 -0.000318898 -0.000326772 -1.48886 -1.48886 -3.93701e-006 3.93701e-006c-0.0312402,-0.0312402 -0.0312402,-0.0818937 0,-0.113134l0.000295276 -0.000287402zm0.621303 -0.395051l-0.451906 0.451906 1.40234 1.40234 0.451906 -0.451906 -1.40234 -1.40234z"/>
     <path id="_203008384" class="fil2" d="M4.17371 4.09911c-0.0312362,-0.0312362 -0.0818898,-0.0312362 -0.113126,0 -0.0312362,0.0312362 -0.0312362,0.0818898 0,0.113126l0.477709 0.477713c0.0312362,0.0312362 0.0818898,0.0312362 0.113126,0 0.0312362,-0.0312362 0.0312362,-0.0818898 0,-0.113126l-0.477709 -0.477713z"/>
     <path id="_203007952" class="fil2" d="M3.62621 2.29583c0.0709606,0.0709606 0.106449,0.163972 0.106449,0.256969 0,0.0929961 -0.0354882,0.186004 -0.106449,0.256969 -0.0706181,0.0706181 -0.163469,0.106 -0.256543,0.10613 -0.0924921,0.000133858 -0.185028,-0.0348465 -0.25585,-0.104921l-3.93701e-006 3.93701e-006 -0.000602362 -0.000586614 7.87402e-006 -7.87402e-006 -2.3622e-005 -2.3622e-005 -0.00015748 0.000161417 -1.1811e-005 -1.1811e-005 -3.93701e-006 3.93701e-006 -0.000748031 -0.000748031 -0.000988189 -0.001c-0.0703031,-0.0708386 -0.105461,-0.163406 -0.105461,-0.255969 0,-0.0929961 0.0354843,-0.186008 0.106449,-0.256969 0.0709606,-0.0709646 0.163972,-0.106449 0.256969,-0.106449 0.0929961,0 0.186004,0.0354843 0.256969,0.106449zm-0.0535512 0.256969c0,-0.052063 -0.0198661,-0.104134 -0.0595748,-0.143843 -0.0397126,-0.0397126 -0.0917795,-0.0595748 -0.143843,-0.0595748 -0.052063,0 -0.10413,0.0198622 -0.143843,0.0595748 -0.0397126,0.0397126 -0.0595748,0.0917795 -0.0595748,0.143843 0,0.0519685 0.0197913,0.103941 0.0593583,0.143626l0.00065748 0.000633858 -0.0564016 0.0567323 0.056252 -0.056563c0.0398346,0.0396024 0.0919331,0.0593661 0.143976,0.0592913 0.0516929,-7.08661e-005 0.103575,-0.0200354 0.143417,-0.059878 0.0397126,-0.0397126 0.0595748,-0.0917795 0.0595748,-0.143843z"/>
     <path id="_203007976" class="fil2" d="M3.2254 2.80977c0.0312362,-0.0312362 0.0312362,-0.0818898 0,-0.113126 -0.0312362,-0.0312362 -0.0818898,-0.0312362 -0.113126,0l-0.832378 0.832378c-0.0312362,0.0312362 -0.0312362,0.0818898 0,0.113126 0.0312362,0.0312362 0.0818898,0.0312362 0.113126,0l0.832378 -0.832378z"/>
     <path id="_203008240" class="fil2" d="M2.73511 3.18693c-0.0312362,-0.0312362 -0.0818898,-0.0312362 -0.113126,0 -0.0312362,0.0312362 -0.0312362,0.0818898 0,0.113126l0.223709 0.223709c0.0312362,0.0312362 0.0818898,0.0312362 0.113126,0 0.0312362,-0.0312362 0.0312362,-0.0818898 0,-0.113126l-0.223709 -0.223709z"/>
     <path id="_203007712" class="fil2" d="M2.57898 3.34306c-0.0312362,-0.0312362 -0.0818898,-0.0312362 -0.113126,0 -0.0312362,0.0312362 -0.0312362,0.0818898 0,0.113126l0.223709 0.223709c0.0312362,0.0312362 0.0818898,0.0312362 0.113126,0 0.0312362,-0.0312362 0.0312362,-0.0818898 0,-0.113126l-0.223709 -0.223709z"/>
     <path id="_203007856" class="fil2" d="M2.42285 3.49919c-0.0312362,-0.0312362 -0.0818898,-0.0312362 -0.113126,0 -0.0312362,0.0312362 -0.0312362,0.0818898 0,0.113126l0.223709 0.223709c0.0312362,0.0312362 0.0818898,0.0312362 0.113126,0 0.0312362,-0.0312362 0.0312362,-0.0818898 0,-0.113126l-0.223709 -0.223709z"/>
    </g>
    <path id="_203007784" class="fil1" d="M2.30973 3.49919l0.15613 -0.15613 0.15613 -0.15613 0.440051 -0.440051c-0.089185,-0.14098 -0.0722087,-0.328602 0.0502323,-0.451043 0.141933,-0.141933 0.372008,-0.141929 0.513937,0 0.141929,0.141929 0.141929,0.372004 0,0.513937 -0.121961,0.121965 -0.310374,0.139004 -0.450945,0.0501339l-0.383587 0.383587 0.167146 0.167146c0.0312362,0.0312362 0.0312362,0.0818898 0,0.113126 -0.0312362,0.0312362 -0.0818898,0.0312362 -0.113126,0l-0.167146 -0.167146 -0.0430039 0.0430039 0.167146 0.167146c0.0312362,0.0312362 0.0312362,0.0818898 0,0.113126 -0.0312362,0.0312362 -0.0818898,0.0312362 -0.113126,0l-0.167146 -0.167146 -0.0430039 0.0430039 0.167146 0.167146c0.0312362,0.0312362 0.0312362,0.0818898 0,0.113126 -0.0312362,0.0312362 -0.0818898,0.0312362 -0.113126,0l-0.173846 -0.173846c-0.0272992,0.00821654 -0.058126,0.00154331 -0.0796969,-0.0200276 -0.0312362,-0.0312362 -0.0312362,-0.0818898 0,-0.113126l0.0298346 -0.0298346zm0.684831 -1.98252c-0.378232,0 -0.756461,0.144287 -1.04503,0.432858 -0.288571,0.288571 -0.432858,0.666799 -0.432858,1.04503 0,0.378228 0.144287,0.756461 0.432858,1.04503 0.288571,0.288571 0.666799,0.432858 1.04503,0.432858 0.378228,0 0.756461,-0.144287 1.04503,-0.432858 0.288571,-0.288571 0.432858,-0.666803 0.432858,-1.04503 0,-0.378232 -0.144287,-0.756461 -0.432858,-1.04503 -0.288571,-0.288571 -0.666803,-0.432858 -1.04503,-0.432858z"/>
    <polygon id="_203007616" class="fil3" points="4.65142,4.68995 4.44473,4.89664 5.84707,6.29898 6.29898,5.84708 4.89664,4.44474 "/>
   </g>
   <path id="_203008216" class="fil4" d="M2.76253 1.5887c0.419165,0 0.838343,0.159909 1.15816,0.479728 0.319823,0.319823 0.479736,0.738992 0.479736,1.15816 0,0.101961 -0.0094685,0.203929 -0.0283898,0.304469 0.0669409,-0.172154 0.100413,-0.354323 0.100413,-0.536496 0,-0.378228 -0.144287,-0.756457 -0.432862,-1.04503 -0.288567,-0.288567 -0.666799,-0.432854 -1.04503,-0.432858 -0.182173,0 -0.364346,0.0334724 -0.5365,0.100417 0.100539,-0.0189291 0.202508,-0.0283898 0.304472,-0.0283898z"/>
   <polygon id="_203006944" class="fil5" points="4.89664,4.44473 4.77774,4.56363 6.18009,5.96597 6.29898,5.84707 "/>
  </g>
 </g>
</svg>
